<svg xmlns="http://www.w3.org/2000/svg" viewBox="378 840 304 321" aria-label="NOMAAD" role="img">
<defs><clipPath id="clip_1"><path transform="matrix(1,0,0,-1,0,2000)" d="M0 2000H2000V0H0Z"/></clipPath></defs>
<g><g clip-path="url(#clip_1)"><path transform="matrix(1,0,0,-1,524.9629,854.88137)" d="M0 0V-2.044-110.406-110.543H4.863 26.178C26.179-116.594 27.094-122.381 28.788-127.829 30.482-133.275 32.958-138.383 36.093-143.022 42.362-152.306 51.266-159.695 61.674-164.093 68.618-167.029 76.223-168.652 84.289-168.654V-199.695C65.878-199.701 48.642-194.07 34.433-184.458 20.212-174.849 8.929-161.267 2.15-145.249 1.367-143.398 .667-141.504 .009-139.591-2.552-147.023-6.057-154.019-10.372-160.398-19.982-174.619-33.563-185.902-49.582-192.681-60.256-197.199-72.022-199.697-84.289-199.695V-168.654C-78.237-168.654-72.451-167.738-67.002-166.044-61.556-164.349-56.449-161.873-51.809-158.738-42.526-152.47-35.136-143.565-30.737-133.158-27.803-126.213-26.179-118.609-26.177-110.543H-20.87L-131.621 .094-132.886 0V-290.326H-70.664-16.354L-15.589-237.97-15.59-237.972C-15.544-237.046-15.52-236.117-15.52-235.181-24.594-246.175-36.237-254.957-49.582-260.603-60.256-265.121-72.022-267.619-84.289-267.617V-236.576C-78.237-236.576-72.451-235.66-67.002-233.966-61.556-232.271-56.449-229.794-51.809-226.66-42.526-220.392-35.136-211.488-30.737-201.08-27.803-194.134-26.179-186.531-26.177-178.464H-4.862 3.606V-290.332H8.833 23.096V-253.48C27.346-256.22 31.846-258.611 36.556-260.601 47.226-265.121 58.996-267.621 71.266-267.621V-236.582C65.216-236.572 59.426-235.662 53.976-233.96 48.526-232.271 43.426-229.791 38.786-226.662 29.496-220.39 22.105-211.492 17.716-201.082 17.173-199.798 16.691-198.486 16.24-197.16 14.249-191.302 13.154-185.044 13.146-178.464H26.178L141.719-290.326V0Z" fill="#5B7B3E"/></g></g>
</svg>