<svg xmlns="http://www.w3.org/2000/svg" viewBox="392 855 1216 291" aria-label="NOMAAD" role="img">
<defs><clipPath id="clip_1"><path transform="matrix(1,0,0,-1,0,2000)" d="M0 2000H2000V0H0Z"/></clipPath></defs>
<g>
<path transform="matrix(1,0,0,-1,710.6362,1073.4326)" d="M0 0V146.631H34.772L99.5 80.228V146.631H135.948V0H99.5V32.888L36.448 96.985V0Z" fill="#F5F5F5"/>
<g clip-path="url(#clip_1)">
<path transform="matrix(1,0,0,-1,1043.3042,926.80178)" d="M0 0C0-25.137 10.264-46.294 37.286-46.294 64.308-46.294 74.572-25.137 74.572 0H111.021V-146.631H74.572V-60.538C66.822-73.315 54.044-80.647 37.286-80.647 20.528-80.647 7.75-73.315 0-60.538V-146.631H-36.448V0Z" fill="#F5F5F5"/>
<path transform="matrix(1,0,0,-1,1232.2627,971.8379)" d="M0 0-17.805-43.361C-12.987-40.639-7.122-39.381 0-39.381 7.332-39.381 13.197-40.639 18.015-43.361ZM-38.543-94.054-41.685-101.595H-81.275L-19.481 45.036H19.69L81.485-101.595H41.895L38.752-94.054C32.468-78.762 17.386-71.221 0-71.221-17.177-71.221-32.259-78.762-38.543-94.054" fill="#F5F5F5"/>
<path transform="matrix(1,0,0,-1,1386.2188,971.8379)" d="M0 0-17.805-43.361C-12.987-40.639-7.122-39.381 0-39.381 7.332-39.381 13.197-40.639 18.015-43.361ZM-38.543-94.054-41.685-101.595H-81.275L-19.481 45.036H19.69L81.485-101.595H41.895L38.752-94.054C32.468-78.762 17.386-71.221 0-71.221-17.177-71.221-32.259-78.762-38.543-94.054" fill="#F5F5F5"/>
<path transform="matrix(1,0,0,-1,1503.815,960.9453)" d="M0 0V-78.344H26.812C53.206-78.344 66.193-62.004 66.193-39.172 66.193-16.34 53.206 0 26.812 0ZM34.144-112.487H-36.448V34.144H34.144C81.485 34.144 104.108 1.047 104.108-38.753 104.108-78.553 82.323-112.487 34.144-112.487" fill="#F5F5F5"/>
<path transform="matrix(1,0,0,-1,958.75,1034.9395)" d="M0 0C0-1.25-1.01-2.261-2.25-2.261H-62.56C-63.81-2.261-64.82-1.25-64.82 0V70.119C-64.82 71.359-63.81 72.369-62.56 72.369H-2.25C-1.01 72.369 0 71.359 0 70.119ZM-100.82 91.571V-21.463C-100.82-30.74-93.299-38.261-84.022-38.261H19.202C28.479-38.261 36-30.74 36-21.463V91.571C36 100.849 28.479 108.369 19.202 108.369H-84.022C-93.299 108.369-100.82 100.849-100.82 91.571" fill="#F5F5F5"/>
<path transform="matrix(1,0,0,-1,524.9629,854.88137)" d="M0 0V-2.044-110.406-110.543H4.863 26.178C26.179-116.594 27.094-122.381 28.788-127.829 30.482-133.275 32.958-138.383 36.093-143.022 42.362-152.306 51.266-159.695 61.674-164.093 68.618-167.029 76.223-168.652 84.289-168.654V-199.695C65.878-199.701 48.642-194.07 34.433-184.458 20.212-174.849 8.929-161.267 2.15-145.249 1.367-143.398 .667-141.504 .009-139.591-2.552-147.023-6.057-154.019-10.372-160.398-19.982-174.619-33.563-185.902-49.582-192.681-60.256-197.199-72.022-199.697-84.289-199.695V-168.654C-78.237-168.654-72.451-167.738-67.002-166.044-61.556-164.349-56.449-161.873-51.809-158.738-42.526-152.47-35.136-143.565-30.737-133.158-27.803-126.213-26.179-118.609-26.177-110.543H-20.87L-131.621 .094-132.886 0V-290.326H-70.664-16.354L-15.589-237.97-15.59-237.972C-15.544-237.046-15.52-236.117-15.52-235.181-24.594-246.175-36.237-254.957-49.582-260.603-60.256-265.121-72.022-267.619-84.289-267.617V-236.576C-78.237-236.576-72.451-235.66-67.002-233.966-61.556-232.271-56.449-229.794-51.809-226.66-42.526-220.392-35.136-211.488-30.737-201.08-27.803-194.134-26.179-186.531-26.177-178.464H-4.862 3.606V-290.332H8.833 23.096V-253.48C27.346-256.22 31.846-258.611 36.556-260.601 47.226-265.121 58.996-267.621 71.266-267.621V-236.582C65.216-236.572 59.426-235.662 53.976-233.96 48.526-232.271 43.426-229.791 38.786-226.662 29.496-220.39 22.105-211.492 17.716-201.082 17.173-199.798 16.691-198.486 16.24-197.16 14.249-191.302 13.154-185.044 13.146-178.464H26.178L141.719-290.326V0Z" fill="#F5F5F5"/>
</g>
</g>
</svg>